<svg xmlns="http://www.w3.org/2000/svg" width="103.8" height="92.029" viewBox="0 0 103.8 92.029">
  <g id="Group_79" data-name="Group 79" transform="translate(0.5 0.5)">
    <g id="Group_13" data-name="Group 13">
      <circle id="Ellipse_6" data-name="Ellipse 6" cx="7.063" cy="7.063" r="7.063" transform="translate(31.684 22.463)" fill="#e2e2e2" stroke="#707070" stroke-width="1"/>
      <path id="Path_1" data-name="Path 1" d="M96.718,79.52a21.749,21.749,0,0,0-12.163-5.787v-35.9a14.122,14.122,0,0,0-4.022-9.809A13.706,13.706,0,0,0,70.724,24H13.831a14.122,14.122,0,0,0-9.809,4.022A13.706,13.706,0,0,0,0,37.831V96.392A14.122,14.122,0,0,0,4.022,106.2a13.706,13.706,0,0,0,9.809,4.022H68.86a20.753,20.753,0,0,0,27.858-30.7ZM5.2,37.831a8.211,8.211,0,0,1,2.55-5.984,8.607,8.607,0,0,1,6.082-2.55H70.724a8.709,8.709,0,0,1,8.632,8.632v30.6L64.839,54.016a2.634,2.634,0,0,0-3.727,0L39.237,75.989,24.425,61.079a2.634,2.634,0,0,0-3.727,0L5.2,76.773Zm8.534,67.389v-.2a8.607,8.607,0,0,1-6.082-2.55A8.952,8.952,0,0,1,5.2,96.392V84.228l17.362-17.46L37.373,81.58a2.728,2.728,0,0,0,3.727,0L62.975,59.607,77.3,74.027l-.883.294a9.11,9.11,0,0,0-1.275.392c-.392.1-.785.294-1.177.392a2.937,2.937,0,0,0-.785.392,9.117,9.117,0,0,0-.981.49l-1.471.883c-.294.2-.49.294-.785.49-.2.1-.294.2-.49.294a11.835,11.835,0,0,0-2.354,2.06A20.751,20.751,0,0,0,61.013,94.43a21.565,21.565,0,0,0,.49,4.316c.1.392.2.687.294,1.079.294.981.589,1.962.981,2.943v.1a17.993,17.993,0,0,0,1.275,2.354Zm79.16,0a15.517,15.517,0,0,1-21.678.2c-.392-.392-.785-.883-1.177-1.275-.294-.294-.589-.687-.883-.981a9.315,9.315,0,0,1-.981-1.668c-.2-.392-.392-.687-.589-1.079a8.286,8.286,0,0,1-.49-1.668c-.1-.392-.294-.883-.392-1.275a16.235,16.235,0,0,1-.294-3.139A15.745,15.745,0,0,1,70.92,83.345a15.166,15.166,0,0,1,10.986-4.512,15.745,15.745,0,0,1,10.986,4.512A15.332,15.332,0,0,1,97.4,94.332,15.688,15.688,0,0,1,92.893,105.22Z" transform="translate(0 -24)" fill="#e2e2e2" stroke="#707070" stroke-width="1"/>
      <path id="Path_2" data-name="Path 2" d="M309.145,265.185a3.424,3.424,0,0,0-.883-.589,2.864,2.864,0,0,0-.883-.2h-.2a2.864,2.864,0,0,0-.883.2,2.317,2.317,0,0,0-.883.589l-6.082,6.082a2.636,2.636,0,0,0,3.727,3.728l1.569-1.569v10.79a2.648,2.648,0,1,0,5.3,0v-10.79l1.569,1.569a2.636,2.636,0,0,0,3.728-3.728Z" transform="translate(-225.375 -205.447)" fill="#e2e2e2" stroke="#707070" stroke-width="1"/>
    </g>
  </g>
</svg>
