<svg xmlns="http://www.w3.org/2000/svg" width="40" height="40" viewBox="0 0 40 40">
  <g id="Group_307" data-name="Group 307" transform="translate(-3921 -2769)">
    <g id="Group_303" data-name="Group 303" transform="translate(272)">
      <rect id="Rectangle_118" data-name="Rectangle 118" width="40" height="40" transform="translate(3649 2769)" fill="none"/>
    </g>
    <path id="Union_35" data-name="Union 35" d="M1.511,18.452A12.5,12.5,0,0,1,12.5,0,14.67,14.67,0,0,1,14.24.128,12.5,12.5,0,1,1,1.511,18.452ZM2.363,12.5A10.133,10.133,0,1,0,13.91,2.464a12.146,12.146,0,0,0-1.413-.1A10.147,10.147,0,0,0,2.363,12.5Zm9.164,4.046v-3H8.479a.98.98,0,1,1,0-1.961h3.048V8.534a.979.979,0,1,1,1.958,0v3.048h3a.98.98,0,0,1,0,1.961h-3v3a.979.979,0,1,1-1.958,0Z" transform="translate(3929 2777)" fill="#FBAB18"/>
  </g>
</svg>
