<svg xmlns="http://www.w3.org/2000/svg" width="40" height="40" viewBox="0 0 40 40">
  <g id="Group_309" data-name="Group 309" transform="translate(-3970 -2769)">
    <g id="Group_306" data-name="Group 306" transform="translate(321)">
      <rect id="Rectangle_118" data-name="Rectangle 118" width="40" height="40" transform="translate(3649 2769)" fill="none"/>
    </g>
    <path id="Path_6" data-name="Path 6" d="M-758.719,23.818c-.427-.339-.241-1.366-.239-1.377l1.668-9.77,14.7-1.174-14.7-1.173L-758.958.558c0-.011-.187-1.038.239-1.376A.987.987,0,0,1-758.09-1a2.3,2.3,0,0,1,.864.182l22.793,10.684A1.785,1.785,0,0,1-733.4,11.5h0a1.787,1.787,0,0,1-1.038,1.632l-22.793,10.687a2.3,2.3,0,0,1-.864.182A.987.987,0,0,1-758.719,23.818Z" transform="translate(4736 2778)" fill="#FBAB18"/>
  </g>
</svg>
