<svg xmlns="http://www.w3.org/2000/svg" xmlns:xlink="http://www.w3.org/1999/xlink" width="211.908" height="211.908" viewBox="0 0 211.908 211.908">
  <defs>
    <filter id="Path_24" x="0" y="0" width="211.908" height="211.908" filterUnits="userSpaceOnUse">
      <feOffset dy="3" input="SourceAlpha"/>
      <feGaussianBlur stdDeviation="3" result="blur"/>
      <feFlood flood-opacity="0.161"/>
      <feComposite operator="in" in2="blur"/>
      <feComposite in="SourceGraphic"/>
    </filter>
  </defs>
  <g id="Group_52" data-name="Group 52" transform="translate(-4687.939 -5054.939)">
    <g transform="matrix(1, 0, 0, 1, 4687.94, 5054.94)" filter="url(#Path_24)">
      <path id="Path_24-2" data-name="Path 24" d="M43.5,0H93.615a43.5,43.5,0,0,1,43.5,43.5V93.615a43.5,43.5,0,0,1-43.5,43.5H43.5A43.5,43.5,0,0,1,0,93.615V43.5A43.5,43.5,0,0,1,43.5,0Z" transform="translate(105.95 6) rotate(45)" fill="#fff"/>
    </g>
    <g id="Group_63" data-name="Group 63">
      <path id="Rectangle_76" data-name="Rectangle 76" d="M23,0H56a0,0,0,0,1,0,0V0A23,23,0,0,1,33,23H0a0,0,0,0,1,0,0v0A23,23,0,0,1,23,0Z" transform="translate(4770.516 5150.269)" fill="#dd2a60"/>
      <path id="Rectangle_77" data-name="Rectangle 77" d="M0,0H32A23,23,0,0,1,55,23v0a0,0,0,0,1,0,0H23A23,23,0,0,1,0,0V0A0,0,0,0,1,0,0Z" transform="translate(4793.516 5150.269) rotate(90)" fill="#00a6e3"/>
      <path id="Rectangle_70" data-name="Rectangle 70" d="M0,0H35A21,21,0,0,1,56,21v0a0,0,0,0,1,0,0H21A21,21,0,0,1,0,0V0A0,0,0,0,1,0,0Z" transform="translate(4770.516 5122.269)" fill="#fbab18"/>
      <path id="Intersection_1" data-name="Intersection 1" d="M0,23A23,23,0,0,1,23,0V23Z" transform="translate(4770.516 5150.269)" fill="#5a469b"/>
    </g>
  </g>
</svg>
