<svg xmlns="http://www.w3.org/2000/svg" width="30" height="30" viewBox="0 0 30 30">
  <g id="Group_76" data-name="Group 76" transform="translate(-2868 -3809)">
    <path id="_1159580" data-name="1159580" d="M17.1,0H.876A.607.607,0,0,0,.269.607V23.338a1.213,1.213,0,0,0,1.921.987l6.8-4.872,6.8,4.872a1.214,1.214,0,0,0,1.921-.986V.607A.607.607,0,0,0,17.1,0ZM16.49,23.338,9.34,18.213a.607.607,0,0,0-.707,0l-7.15,5.125V1.214H16.49Zm0,0" transform="translate(2873.731 3812)" fill="#333"/>
    <rect id="Rectangle_135" data-name="Rectangle 135" width="30" height="30" transform="translate(2868 3809)" fill="none"/>
  </g>
</svg>
