<?xml version="1.0" standalone="no"?>
<!DOCTYPE svg PUBLIC "-//W3C//DTD SVG 20010904//EN" "http://www.w3.org/TR/2001/REC-SVG-20010904/DTD/svg10.dtd">
<svg version="1.0" xmlns="http://www.w3.org/2000/svg" width="3840.000000pt" height="2160.000000pt" viewBox="0 0 3840.000000 2160.000000" preserveAspectRatio="xMidYMid meet">

    <g transform="translate(0.000000,2160.000000) scale(0.100000,-0.100000)" fill="#FFFFFF" stroke="none">
        <path d="M2280 16166 c-105 -30 -336 -152 -506 -267 -477 -325 -934 -870
-1194 -1424 -86 -184 -88 -188 -126 -292 -75 -203 -139 -438 -165 -598 -8 -49
-13 -158 -12 -280 1 -172 4 -216 26 -315 67 -311 214 -573 452 -801 199 -191
478 -339 646 -343 79 -1 111 14 128 59 27 75 7 159 -63 265 -66 101 -89 140
-126 215 -112 233 -158 445 -167 770 -15 544 107 1078 361 1583 142 283 273
470 461 659 120 121 163 149 188 124 19 -19 20 -473 8 -3166 -11 -2350 -17
-2802 -42 -3095 -22 -268 -70 -527 -139 -755 -105 -344 -112 -405 -51 -452 25
-20 124 -15 193 8 76 26 213 102 298 165 82 60 228 201 282 272 24 32 45 59
48 62 22 22 110 170 159 267 121 242 195 486 241 803 27 187 38 365 50 800 13
510 23 4076 13 4795 -8 569 -9 581 -30 621 -69 130 -314 263 -576 315 -112 22
-287 24 -357 5z" />
        <path d="M12695 16168 c-68 -24 -116 -94 -134 -194 -17 -93 -48 -782 -52
-1132 -1 -90 -6 -165 -11 -168 -13 -8 -221 -5 -408 6 -85 5 -262 12 -392 16
l-238 7 -37 -39 c-143 -152 -216 -591 -113 -689 l29 -28 233 -7 c128 -5 378
-12 555 -16 l323 -7 -5 -486 c-3 -267 -7 -803 -10 -1189 l-5 -704 -35 -136
c-88 -351 -270 -705 -508 -992 -82 -99 -234 -257 -240 -250 -3 3 1 39 9 80 18
102 17 318 -1 424 -47 268 -188 510 -441 756 -66 64 -148 138 -184 165 -36 27
-67 52 -70 55 -15 17 -766 584 -830 626 -22 15 -40 30 -40 35 0 4 31 47 69 95
145 180 288 423 371 631 77 190 97 390 51 508 -63 160 -192 234 -438 251 -287
19 -568 -103 -790 -341 -136 -145 -227 -314 -280 -516 -24 -91 -28 -122 -27
-249 0 -135 2 -151 32 -240 36 -108 101 -225 180 -322 l54 -68 -47 -92 c-26
-51 -73 -140 -105 -198 -31 -58 -77 -143 -102 -190 -54 -101 -237 -431 -248
-445 -4 -5 -20 -32 -35 -60 -37 -68 -121 -211 -228 -390 -49 -82 -99 -166
-109 -185 -42 -73 -210 -318 -272 -396 -79 -98 -170 -184 -222 -209 -22 -10
-60 -20 -85 -23 -40 -4 -49 -1 -76 27 -96 95 -123 325 -123 1041 0 481 5 679
36 1395 8 204 16 462 17 575 2 193 1 208 -21 262 -31 77 -101 168 -173 227
-120 97 -373 232 -534 287 -74 24 -89 26 -195 21 -124 -5 -204 -25 -319 -79
-197 -92 -414 -301 -590 -568 -31 -47 -58 -87 -61 -90 -14 -13 -123 -212 -193
-353 -100 -201 -216 -480 -302 -727 -76 -216 -226 -626 -240 -655 -14 -27 -15
-5 -10 240 3 149 6 651 6 1116 2 880 2 864 -39 912 -24 27 -183 100 -307 140
-142 45 -260 67 -366 67 -97 0 -142 -17 -175 -67 -20 -29 -21 -49 -27 -305 -4
-150 -10 -1031 -13 -1958 -7 -1803 -6 -1882 41 -2065 30 -119 68 -195 129
-262 93 -102 179 -127 446 -128 202 0 260 11 319 61 35 29 35 29 61 234 41
333 138 763 285 1275 69 239 187 594 233 705 6 14 27 68 47 120 136 354 346
774 534 1065 154 240 383 515 428 515 41 0 44 -24 33 -272 -5 -128 -14 -345
-20 -483 -6 -137 -15 -342 -20 -455 -42 -886 -41 -1452 1 -1805 29 -248 95
-500 166 -635 122 -233 307 -341 559 -327 236 13 479 150 754 427 156 156 250
267 379 450 45 63 85 120 89 125 17 22 132 205 180 285 27 47 93 156 146 244
53 87 96 161 96 165 0 4 7 16 15 26 9 11 65 103 125 205 61 102 115 192 120
200 5 8 40 67 78 130 37 63 121 204 186 313 l119 199 45 -44 c25 -24 51 -47
57 -53 11 -9 93 -84 289 -265 87 -79 294 -286 321 -320 109 -137 162 -217 219
-335 70 -143 99 -263 99 -410 -1 -144 -20 -239 -72 -346 -66 -135 -137 -203
-263 -253 -82 -32 -172 -34 -281 -7 -133 34 -209 78 -502 286 -143 101 -236
115 -329 51 -133 -91 -253 -264 -316 -454 -34 -105 -36 -142 -8 -203 30 -65
71 -108 158 -163 189 -122 463 -205 825 -252 175 -22 539 -15 695 14 519 97
927 349 1285 792 188 233 397 587 520 882 29 71 45 79 45 24 0 -117 72 -515
126 -693 96 -316 213 -536 376 -708 185 -195 402 -296 668 -312 139 -8 243 13
365 72 232 112 465 350 658 672 84 140 119 210 183 367 l53 128 10 -38 c177
-654 524 -1057 1011 -1174 318 -76 691 -1 1005 202 192 123 403 337 510 516 6
9 24 37 41 62 17 25 41 67 54 93 28 56 32 51 50 -53 13 -81 68 -238 108 -310
139 -252 352 -421 637 -506 121 -36 313 -38 448 -5 214 51 407 177 560 366 45
56 142 211 182 293 22 45 42 82 45 82 3 0 14 -19 25 -42 140 -293 393 -538
671 -648 147 -59 233 -74 419 -74 145 -1 184 2 264 22 344 85 603 245 841 522
36 42 81 99 100 128 19 28 38 52 41 52 6 0 19 -253 19 -380 l0 -78 -42 -37
c-57 -50 -138 -125 -278 -255 -63 -58 -137 -126 -165 -151 -27 -24 -52 -46
-55 -49 -7 -7 -260 -241 -335 -310 -104 -96 -508 -502 -582 -585 -161 -181
-291 -357 -378 -511 -30 -53 -55 -98 -55 -100 0 -2 -15 -36 -34 -76 -74 -160
-109 -332 -108 -533 0 -287 71 -495 232 -686 43 -52 85 -99 92 -104 205 -164
391 -254 642 -311 150 -35 387 -43 531 -20 312 51 596 205 835 453 190 196
283 346 381 614 144 392 233 936 241 1474 2 94 -1 445 -6 782 l-9 612 50 58
c337 391 722 937 987 1401 311 544 625 1228 752 1637 24 77 -38 67 485 80 352
9 329 23 279 -183 -75 -306 -143 -738 -172 -1097 -16 -204 -16 -612 0 -780 35
-360 115 -668 230 -884 41 -77 130 -213 167 -256 81 -92 156 -163 230 -218 28
-20 56 -42 63 -48 7 -6 65 -37 130 -69 223 -111 454 -144 652 -91 279 73 531
284 703 588 26 45 47 87 47 93 0 23 22 7 36 -27 25 -58 116 -192 191 -278 158
-182 381 -320 603 -372 99 -23 137 -27 270 -27 278 0 497 68 750 231 109 71
166 118 265 217 127 128 216 246 314 418 25 43 47 76 49 73 3 -3 17 -53 32
-112 86 -339 282 -587 574 -728 291 -140 597 -138 851 5 93 52 230 182 291
275 21 33 44 65 50 72 7 7 42 72 79 145 37 73 70 134 75 136 4 2 8 -32 9 -75
3 -219 36 -459 67 -494 22 -25 119 -81 174 -101 136 -51 208 -62 405 -62 277
-1 400 26 444 98 41 66 49 132 60 483 31 998 65 1252 257 1908 93 315 202 598
325 845 49 96 102 192 119 213 34 40 73 49 84 20 4 -9 11 -152 16 -317 23
-710 100 -1618 170 -1991 5 -27 14 -79 21 -115 16 -90 64 -283 87 -352 30 -89
80 -165 167 -254 130 -132 238 -174 455 -174 190 0 294 35 350 119 23 35 25
45 31 266 9 276 51 662 100 909 6 28 14 76 19 106 26 157 142 651 190 807 83
264 238 684 328 883 11 25 35 78 52 118 19 42 39 72 48 72 12 0 13 -34 6 -252
-17 -539 -4 -1352 26 -1638 53 -502 84 -671 169 -908 131 -366 360 -635 651
-764 151 -66 224 -81 395 -81 134 0 159 2 237 26 340 104 586 430 717 953 118
473 103 736 -46 785 -113 37 -192 -54 -243 -276 -42 -183 -109 -419 -144 -508
-67 -172 -153 -284 -249 -328 -95 -43 -230 -15 -304 63 -41 44 -98 128 -119
175 -123 284 -165 532 -185 1103 -13 355 -6 1262 13 1628 6 125 12 322 12 437
l1 210 -29 60 c-75 152 -268 276 -617 395 -235 80 -384 76 -504 -14 -64 -47
-123 -134 -160 -235 -8 -20 -28 -70 -45 -111 -43 -102 -164 -424 -189 -502
-11 -34 -34 -101 -50 -148 -156 -437 -333 -1131 -392 -1538 -24 -170 -40 -86
-78 413 -31 401 -40 611 -51 1126 -12 550 -16 588 -92 710 -44 72 -52 82 -128
143 -99 81 -226 141 -400 188 -119 32 -313 33 -380 2 -61 -29 -99 -66 -152
-149 -143 -222 -237 -466 -578 -1500 -50 -154 -96 -284 -101 -290 -6 -6 -9
302 -8 833 l1 843 -26 52 c-15 29 -41 63 -58 76 -37 30 -141 61 -348 107 -327
72 -418 68 -486 -22 l-28 -36 -7 -239 c-4 -131 -13 -791 -19 -1466 -9 -1001
-14 -1241 -26 -1298 -55 -266 -195 -619 -323 -810 -63 -95 -174 -205 -240
-238 -44 -22 -69 -27 -126 -27 -93 0 -153 22 -216 77 -220 199 -280 849 -229
2498 12 373 30 1069 32 1181 1 99 -13 129 -85 183 -73 55 -161 92 -307 130
-272 69 -448 64 -533 -17 -50 -47 -61 -79 -66 -200 l-6 -113 -43 59 c-75 104
-222 241 -340 317 -156 100 -323 151 -532 161 -525 27 -957 -292 -1285 -946
-155 -309 -253 -646 -309 -1065 -35 -261 -41 -357 -41 -695 0 -364 7 -462 51
-730 14 -86 23 -171 20 -191 -10 -64 -72 -242 -111 -318 -71 -143 -164 -246
-265 -297 -44 -23 -72 -29 -141 -32 -78 -4 -92 -2 -148 23 -156 70 -285 294
-356 615 -45 208 -59 364 -59 675 -1 524 30 752 220 1590 65 288 68 305 68
435 1 123 -1 140 -24 190 -83 183 -198 266 -405 291 -113 14 -230 3 -430 -41
-238 -53 -781 -148 -790 -138 -3 3 1 59 9 124 9 65 16 143 16 174 0 284 -172
450 -467 450 -250 0 -426 -91 -567 -294 -116 -167 -176 -462 -131 -647 34
-143 136 -295 259 -387 l29 -22 -27 -107 c-63 -251 -185 -607 -319 -924 -77
-181 -255 -538 -348 -695 -13 -22 -57 -97 -97 -165 -132 -223 -326 -518 -338
-512 -19 10 -6 2147 17 2853 13 377 14 367 -43 431 -67 76 -371 175 -593 194
-144 11 -255 -26 -310 -104 -28 -40 -30 -50 -35 -159 l-5 -117 -49 65 c-165
217 -398 383 -619 440 -413 105 -816 -8 -1122 -314 -119 -119 -166 -179 -270
-346 -210 -334 -362 -756 -439 -1216 -80 -473 -86 -1126 -15 -1531 15 -83 0
-151 -76 -348 -87 -225 -220 -401 -347 -460 -41 -19 -70 -25 -124 -25 -127 0
-215 48 -287 157 -97 147 -148 367 -182 783 -18 219 -21 1188 -5 1625 8 223
19 636 33 1181 2 84 0 94 -26 133 -77 116 -352 216 -651 237 -116 8 -185 -10
-240 -64 -59 -57 -69 -85 -75 -206 l-6 -109 -39 56 c-53 79 -195 216 -296 288
-165 118 -312 171 -536 191 -257 24 -512 -44 -733 -195 -94 -65 -280 -247
-353 -347 -351 -481 -498 -926 -588 -1775 -6 -55 -15 -203 -19 -330 -8 -201
-12 -243 -36 -330 -42 -161 -93 -301 -157 -435 -53 -113 -143 -277 -158 -290
-3 -3 -28 -36 -55 -75 -69 -97 -195 -226 -269 -274 -73 -48 -163 -81 -220 -81
-125 1 -226 120 -304 357 -16 48 -35 115 -42 148 -6 33 -15 78 -20 100 -5 22
-17 105 -27 185 -31 246 -23 1280 17 2435 15 406 40 1009 44 1012 1 2 220 5
487 8 266 3 558 8 647 11 l164 6 36 32 c42 37 102 160 127 259 32 127 20 271
-25 312 -28 25 -165 42 -488 59 -696 38 -869 48 -901 53 l-33 6 6 146 c37 833
45 1093 35 1112 -19 37 -50 61 -128 99 -235 118 -699 219 -816 178z m4170
-3178 c261 -90 417 -368 491 -880 33 -226 29 -789 -7 -1115 -49 -445 -187
-874 -358 -1121 -83 -119 -210 -237 -311 -289 -123 -63 -300 -60 -408 9 -191
120 -328 399 -396 808 -40 235 -49 395 -43 751 10 563 69 939 204 1282 68 174
152 308 260 413 81 79 195 142 288 161 72 15 210 5 280 -19z m4551 -5 c141
-52 234 -148 313 -320 165 -357 201 -1208 80 -1870 -75 -403 -177 -698 -318
-910 -227 -342 -539 -446 -777 -257 -303 239 -452 997 -368 1872 83 878 387
1445 809 1510 76 11 193 0 261 -25z m7818 5 c284 -97 448 -435 501 -1025 25
-283 16 -727 -21 -1009 -56 -435 -197 -861 -362 -1096 -123 -175 -296 -299
-450 -322 -215 -31 -409 116 -530 403 -120 286 -167 606 -165 1134 2 868 149
1465 431 1753 136 138 277 197 452 187 48 -2 111 -13 144 -25z m-7248 -4937
c-12 -804 -69 -1265 -201 -1630 -107 -296 -218 -421 -450 -508 -86 -33 -233
-44 -316 -25 -178 41 -326 192 -370 375 -17 75 -15 256 5 358 30 155 131 399
243 587 35 59 112 174 195 290 73 103 253 318 406 485 119 130 477 495 486
495 6 0 7 -161 2 -427z" />
    </g>
</svg>